<svg width="81" height="62" viewBox="0 0 81 62" fill="none" xmlns="http://www.w3.org/2000/svg">
<path fill-rule="evenodd" clip-rule="evenodd" d="M6 0C2.68629 0 0 2.68629 0 6V11.5806V17V55.3226C0 58.6363 2.68629 61.3226 6 61.3226H75C78.3137 61.3226 81 58.6363 81 55.3226V11.5806C81 8.26694 78.3137 5.58065 75 5.58065H34.9856C34.7703 2.46259 32.1727 0 29 0H6Z" fill="url(#paint0_linear_2_11)"/>
<path fill-rule="evenodd" clip-rule="evenodd" d="M25.7273 21.5C25.7273 20.1193 24.669 19 23.3636 19C22.0583 19 21 20.1193 21 21.5V46.5C21 47.8807 22.0583 49 23.3636 49C24.669 49 25.7273 47.8807 25.7273 46.5V39.9976C25.7273 38.0659 27.2078 36.5 29.0341 36.5C30.6493 36.5 31.9893 37.756 32.5657 39.3519C34.6033 44.9933 39.7684 49 45.8182 49C53.6506 49 60 42.2843 60 34C60 25.7157 53.6506 19 45.8182 19C39.7684 19 34.6033 23.0067 32.5657 28.6481C31.9893 30.244 30.6493 31.5 29.0341 31.5C27.2078 31.5 25.7273 29.9341 25.7273 28.0024V21.5ZM45.8182 44C51.0398 44 55.2727 39.5229 55.2727 34C55.2727 28.4771 51.0398 24 45.8182 24C40.5966 24 36.3636 28.4771 36.3636 34C36.3636 39.5229 40.5966 44 45.8182 44Z" fill="white"/>
<defs>
<linearGradient id="paint0_linear_2_11" x1="-8.27419" y1="-12.2742" x2="91.0161" y2="70.4677" gradientUnits="userSpaceOnUse">
<stop stop-color="#FFDD00"/>
<stop offset="1" stop-color="#FF9500"/>
</linearGradient>
</defs>
</svg>
