<svg width="133" height="144" viewBox="0 0 133 144" fill="none" xmlns="http://www.w3.org/2000/svg">
<g filter="url(#filter0_d)">
<path d="M54.0237 9.9282C61.4493 5.64101 70.5981 5.64102 78.0237 9.9282L112.047 29.5718C119.473 33.859 124.047 41.782 124.047 50.3564V89.6436C124.047 98.218 119.473 106.141 112.047 110.428L78.0237 130.072C70.5981 134.359 61.4493 134.359 54.0237 130.072L20 110.428C12.5744 106.141 8 98.218 8 89.6436V50.3564C8 41.782 12.5744 33.859 20 29.5718L54.0237 9.9282Z" fill="url(#paint0_linear)"/>
<g filter="url(#filter1_d)">
<path fill-rule="evenodd" clip-rule="evenodd" d="M44 50C44 47.7909 42.2091 46 40 46V46C37.7909 46 36 47.7909 36 50V90C36 92.2091 37.7909 94 40 94V94C42.2091 94 44 92.2091 44 90V79.5962C44 76.5055 46.5055 74 49.5962 74V74C52.3296 74 54.5972 76.0096 55.5727 78.563C59.021 87.5893 67.7619 94 78 94C91.2548 94 102 83.2548 102 70C102 56.7452 91.2548 46 78 46C67.7619 46 59.021 52.4107 55.5727 61.437C54.5972 63.9904 52.3296 66 49.5962 66V66C46.5055 66 44 63.4945 44 60.4038V50ZM78 86C86.8366 86 94 78.8366 94 70C94 61.1634 86.8366 54 78 54C69.1634 54 62 61.1634 62 70C62 78.8366 69.1634 86 78 86Z" fill="white"/>
</g>
</g>
<defs>
<filter id="filter0_d" x="0" y="-3" width="132.047" height="150" filterUnits="userSpaceOnUse" color-interpolation-filters="sRGB">
<feFlood flood-opacity="0" result="BackgroundImageFix"/>
<feColorMatrix in="SourceAlpha" type="matrix" values="0 0 0 0 0 0 0 0 0 0 0 0 0 0 0 0 0 0 127 0" result="hardAlpha"/>
<feOffset dy="2"/>
<feGaussianBlur stdDeviation="4"/>
<feComposite in2="hardAlpha" operator="out"/>
<feColorMatrix type="matrix" values="0 0 0 0 0 0 0 0 0 0 0 0 0 0 0 0 0 0 0.1 0"/>
<feBlend mode="normal" in2="BackgroundImageFix" result="effect1_dropShadow"/>
<feBlend mode="normal" in="SourceGraphic" in2="effect1_dropShadow" result="shape"/>
</filter>
<filter id="filter1_d" x="30" y="42" width="78" height="60" filterUnits="userSpaceOnUse" color-interpolation-filters="sRGB">
<feFlood flood-opacity="0" result="BackgroundImageFix"/>
<feColorMatrix in="SourceAlpha" type="matrix" values="0 0 0 0 0 0 0 0 0 0 0 0 0 0 0 0 0 0 127 0" result="hardAlpha"/>
<feOffset dy="2"/>
<feGaussianBlur stdDeviation="3"/>
<feComposite in2="hardAlpha" operator="out"/>
<feColorMatrix type="matrix" values="0 0 0 0 0 0 0 0 0 0 0 0 0 0 0 0 0 0 0.1 0"/>
<feBlend mode="normal" in2="BackgroundImageFix" result="effect1_dropShadow"/>
<feBlend mode="normal" in="SourceGraphic" in2="effect1_dropShadow" result="shape"/>
</filter>
<linearGradient id="paint0_linear" x1="8" y1="3" x2="124" y2="142.5" gradientUnits="userSpaceOnUse">
<stop stop-color="#ffdd00"/>
<stop offset="1" stop-color="#ff9500"/>
</linearGradient>
</defs>
</svg>